<?xml version="1.0" standalone="no"?>
<!DOCTYPE svg PUBLIC "-//W3C//DTD SVG 20010904//EN"
 "http://www.w3.org/TR/2001/REC-SVG-20010904/DTD/svg10.dtd">
<svg version="1.0" xmlns="http://www.w3.org/2000/svg"
 width="410.000000pt" height="410.000000pt" viewBox="0 0 410.000000 410.000000"
 preserveAspectRatio="xMidYMid meet">
<metadata>
Created by potrace 1.14, written by Peter Selinger 2001-2017
</metadata>
<g transform="translate(0.000000,410.000000) scale(0.100000,-0.100000)"
fill="#000000" stroke="none">
<path d="M265 4086 c-108 -34 -186 -102 -232 -201 l-28 -60 0 -1775 0 -1775
28 -60 c36 -78 104 -146 181 -182 l61 -28 1775 0 1775 0 61 28 c77 36 145 104
181 182 l28 60 0 1775 0 1775 -28 61 c-36 77 -104 145 -182 181 l-60 28 -1760
2 c-1402 1 -1768 -1 -1800 -11z m2613 -792 c22 -15 22 -17 22 -285 l0 -269
248 0 c208 0 251 -2 270 -16 l22 -15 0 -937 c0 -832 -2 -940 -16 -960 l-15
-22 -1082 0 c-964 0 -1085 2 -1105 16 -22 15 -22 17 -22 285 l0 269 -248 0
c-208 0 -251 2 -270 16 l-22 15 0 937 c0 832 2 940 16 960 l15 22 1082 0 c964
0 1085 -2 1105 -16z"/>
<path d="M880 2335 l0 -755 160 0 160 0 0 558 c0 488 2 560 16 580 l15 22 725
0 724 0 0 175 0 175 -900 0 -900 0 0 -755z"/>
<path d="M1420 2050 l0 -470 630 0 630 0 0 470 0 470 -630 0 -630 0 0 -470z"/>
<path d="M2900 1957 c0 -534 -1 -565 -18 -580 -17 -16 -83 -17 -740 -17 l-722
0 0 -175 0 -175 900 0 900 0 0 755 0 755 -160 0 -160 0 0 -563z"/>
</g>
</svg>
