<?xml version="1.0" standalone="no"?>
<!DOCTYPE svg PUBLIC "-//W3C//DTD SVG 20010904//EN"
 "http://www.w3.org/TR/2001/REC-SVG-20010904/DTD/svg10.dtd">
<svg version="1.0" xmlns="http://www.w3.org/2000/svg"
 width="410.000000pt" height="410.000000pt" viewBox="0 0 410.000000 410.000000"
 preserveAspectRatio="xMidYMid meet">
<metadata>
Created by potrace 1.14, written by Peter Selinger 2001-2017
</metadata>
<g transform="translate(0.000000,410.000000) scale(0.100000,-0.100000)"
fill="#000000" stroke="none">
<path d="M265 4086 c-108 -34 -186 -102 -232 -201 l-28 -60 0 -1775 0 -1775
28 -60 c36 -78 104 -146 181 -182 l61 -28 1775 0 1775 0 61 28 c77 36 145 104
181 182 l28 60 0 1775 0 1775 -28 61 c-36 77 -104 145 -182 181 l-60 28 -1760
2 c-1402 1 -1768 -1 -1800 -11z m2697 -673 c16 -14 18 -35 18 -205 0 -175 -1
-189 -20 -208 -20 -20 -33 -20 -645 -20 l-625 0 0 -340 0 -340 534 0 c473 0
536 -2 550 -16 13 -13 16 -45 16 -199 0 -154 -3 -186 -16 -199 -14 -14 -77
-16 -550 -16 l-534 0 0 -380 0 -380 623 0 c547 0 625 -2 645 -16 21 -15 22
-20 22 -209 0 -163 -3 -196 -16 -209 -14 -14 -110 -16 -914 -16 -804 0 -900 2
-914 16 -14 14 -16 152 -16 1369 0 1217 2 1355 16 1369 14 14 110 16 911 16
820 0 898 -1 915 -17z"/>
</g>
</svg>
